<svg viewBox="0 0 100 100" xmlns="http://www.w3.org/2000/svg">
  <defs>
    <radialGradient id="plasticZone" cx="50%" cy="20%" r="50%">
      <stop offset="0%" style="stop-color:#991b1b"/>
      <stop offset="8%" style="stop-color:#dc2626"/>
      <stop offset="18%" style="stop-color:#ef4444"/>
      <stop offset="30%" style="stop-color:#f97316"/>
      <stop offset="45%" style="stop-color:#eab308"/>
      <stop offset="65%" style="stop-color:#22c55e"/>
      <stop offset="100%" style="stop-color:#3b82f6"/>
    </radialGradient>
    <mask id="notchMask">
      <rect x="0" y="0" width="100" height="100" rx="15" fill="white"/>
      <polygon points="42,0 50,20 58,0" fill="black"/>
    </mask>
  </defs>
  
  <rect x="0" y="0" width="100" height="100" rx="15" fill="url(#plasticZone)" mask="url(#notchMask)"/>
  <g stroke="#fff" stroke-width="0.5" opacity="0.5">
    <line x1="0" y1="10" x2="42" y2="10"/><line x1="58" y1="10" x2="100" y2="10"/>
    <line x1="0" y1="23" x2="42" y2="23"/><line x1="58" y1="23" x2="100" y2="23"/>
    <line x1="0" y1="36" x2="100" y2="36"/>
    <line x1="0" y1="49" x2="100" y2="49"/>
    <line x1="0" y1="62" x2="100" y2="62"/>
    <line x1="0" y1="75" x2="100" y2="75"/>
    <line x1="0" y1="88" x2="100" y2="88"/>
    <line x1="17" y1="0" x2="17" y2="100"/>
    <line x1="34" y1="0" x2="34" y2="100"/>
    <line x1="50" y1="20" x2="50" y2="100"/>
    <line x1="66" y1="0" x2="66" y2="100"/>
    <line x1="83" y1="0" x2="83" y2="100"/>
  </g>
</svg>
